<?xml version="1.0" encoding="utf-8"?>
<!-- Generator: Adobe Illustrator 24.2.0, SVG Export Plug-In . SVG Version: 6.00 Build 0)  -->
<svg version="1.1" id="Layer_1" xmlns="http://www.w3.org/2000/svg" xmlns:xlink="http://www.w3.org/1999/xlink" x="0px" y="0px"
	 viewBox="0 0 297.5 293.6" style="enable-background:new 0 0 297.5 293.6;" xml:space="preserve">
<style type="text/css">
	.st0{fill:none;}
	.st1{fill:#C02328;}
	.st2{fill:#F7F4F4;}
	.st3{fill:#C32E33;}
	.st4{fill:#C6353A;}
</style>
<g>
	<g>
		<path class="st0" d="M222.9,150.8c6.5-1.2,8-7.7,10.2-12.8c-0.4-4.5-2.7-7.9-6.6-7.2c-6.2,1.2-8.2,6.8-8.9,12.4
			C217.2,147,218.4,151.6,222.9,150.8z"/>
		<path class="st0" d="M86.6,113.8c6.4-0.2,13.5-9.9,13.3-18.2c0.1-4.1-1.1-7.1-5.8-7.3c-5.9-0.2-12.5,11.6-12.3,21.1
			C81.8,113.2,83.6,113.9,86.6,113.8z"/>
		<path class="st0" d="M190.8,134c2.8-0.9,5-2.7,5.5-5.8c-0.4-2.1-1.8-3.2-3.5-2.6c-2.8,1.1-5,3.3-5.4,6.2
			C187.1,133.9,189.2,134.5,190.8,134z"/>
		<path class="st0" d="M50,165.8c-4.8,0.7-10.2,1.6-10.7,7.5c-0.3,3,3.3,4.5,6.5,4.4c5.5-0.2,7.4-4.3,9-8.5
			C54.7,165.7,52.2,165.4,50,165.8z"/>
		<path class="st1" d="M283.3,89.8c-22-45.2-56.1-75-106.4-84.4c-1.7-0.3-3.8-0.9-5.5-1.5c-4.6-1.5-9.2-1.9-14-1.9H133
			c-4.9,0-10,1.7-14.8,2.4c-1.9,0.3-2.9,0.6-4.1,0.8c-17.4,2.9-32.9,9.2-48,17.9C42.1,37,25,57.3,15.4,83.5
			C11.1,95.3,6.8,107.2,5,119.8c-0.2,1.4-0.7,3.6-1.1,4.9c-1.2,3.4-2,7-2,10.6l0,12.9c0,1,0.1,2,0.2,3c0.6,4,1.7,14.9,1.8,16.1
			c3.9,38.4,24.2,69.6,53.7,93.4c18.9,15.3,41.2,22.6,64.2,28.8c0.2,0,0.4,0.1,0.5,0.2c4.2,1.4,8.6,2.1,13.1,2.1
			c0,0,32.6-0.7,35-1.1c2.9-0.5,6.7-1.1,11.8-2.3c21.4-5.2,38.3-15.4,55-27c26.5-18.4,44.2-44.5,53.8-75.7c1.5-4.9,1.3-9.2,3.1-16.5
			c0.9-3.6,1.4-7.4,1.4-11.1v-20.5c0-5.9-1-11.8-2.9-17.4C289.4,109.9,287.9,99.3,283.3,89.8z M117.5,93.2c0.9-4.1,4.9-5.8,9.1-5.7
			c2.7,0.1,4.9,1.2,5.6,3.6c0.2,0.7,0.2,1.5,0,2.2c-1.4,3.9-4.1,5.8-8.3,5.3C120.6,98.2,116.6,97.3,117.5,93.2z M117.3,112.3
			c3.9,1.3,4.9,4.2,3.8,7.8c-2,6.2-4.4,12.2-6.4,18.4c-0.5,1.6-1.9,3.9,0.8,5c1.8,0.7,2.9-0.9,4.2-1.9c6.5-5.1,6.8-12.9,8.8-20.1
			c0.9-3.2-0.2-8,4.3-8.9c3.3-0.6,6.2,1.7,7.7,4.9c1.3,2.8,3.3,2.2,5.7,1.9c15.3-2.2,22.2,5.8,17.5,20c0,0,0,0,0,0.1
			c-1.2,3.6,3.1,6.5,5.8,3.9c1.9-1.8,3.3-4.2,4.3-7c2.1-5.5,4.4-10.9,9.1-14.8c1.1-0.9,2.3-1.7,3.4-2.4c1.1-0.6,2.2-1.1,3.3-1.4
			c1.1-0.3,2.1-0.5,3.2-0.5c1,0,2,0.1,3,0.3c0.5,0.1,0.9,0.3,1.4,0.5c1.4,0.6,2.6,1.5,3.7,2.8c1.4,1.6,2.6,3.8,3.4,6.6c0,0,0,0,0,0
			c-0.5,10.5-4.2,14.5-15.1,16.4c-2.1,0.4-5.1-0.5-5.4,2.7c-0.3,3.1,2.4,4.4,4.8,5.5c3.1,1.4,5.4-0.4,8.1-1.8
			c6.8-3.8,9.7-10.2,12.4-16.9c0.4-1.1,1.1-2.2,2-3c6.9-7,13.5-13.5,25.5-7.5c2.2,1.1,5.4-0.2,8.9-1.1c4.5-1.2,6.9,1.4,5.4,5.8
			c-1.6,4.6-3.9,9-5.5,13.6c-1,3.1-2.6,7.5,3.9,4.5c2.6-1.2,4.3-0.3,5.8,1.8c1.4,2,0.2,3.8-0.6,5.4c-3.5,7.2-11,9.4-17.8,4.1
			c-4-3.1-6-2.4-9.8-0.3c-6.2,3.4-13,7.3-19.5,0.3c-2.4-2.6-3.9,0-5.8,0.7c-9.3,3.8-18.6,6.8-26.1-3.6c-2-2.7-4.2-2.2-6.7-0.5
			c-6.5,4.7-14,5.7-19.7,0c-5.3-5.3-2.3-12,0.8-18c1.2-2.3,4.4-5.3,1.1-7.7c-2.6-1.9-5.5,0.7-7.9,2.3c-5.7,3.9-8.3,9.5-9.5,16.2
			c-1.1,5.9-3.4,11.1-11.1,7c-3-1.5-5.6,0.2-8.4,0.9c-7.6,1.7-13.8-3.4-12-10.8c2.5-10,6.4-19.7,9.8-29.5
			C112.7,110.7,115.1,111.5,117.3,112.3z M275,173.2c-3.2,13.9-14.3,18.4-25.9,22.5c-23.4,8.1-47.1,5.5-70.3,0.2
			c-32.3-7.3-65-13.6-96.4-24.3c-6.5-2.2-10.7-2.5-14.6,5.2c-6.5,13-23.9,17.3-36.3,9.9c-6.9-4.1-9.2-11.5-8.4-19.2
			c1-9.1,8.3-12.5,16-14.9c0.6-0.2,1.3-0.1,1.9-0.1c18.7-1.7,20.5-3.9,22.1-22.8c0.4-5.5-3.2-6.5-6.4-8.4c-4-2.4-8-4.7-5.5-10.6
			c1.7-3.9,3.6-6.4,7.9-3.3c7.1,5.2,9.8,2.3,11.9-5.3c1.7-6.1,3.7-12.2,8.2-17.5c5.6-6.7,11.1-12.4,20.4-8.7
			c8.1,3.2,13.3,14.9,11,23.9c-3.5,13.7-9.7,24.9-26,26c-3.8,0.3-6.2,2.3-7,6.7c-3.9,24-8.1,23,16.1,29c43.5,10.8,87.2,17.4,132,17
			c2.5,0,5-0.5,8.2-0.8c0.3,0,0.5,0,0.8,0c11.5,1.4,21.9-3.7,31.7-10.2c2.1-1.3,3.4-4.6,6.4-2.2C275.1,167.3,275.7,169.8,275,173.2z
			"/>
		<path class="st2" d="M186.3,119.1c1.1-0.6,2.2-1.1,3.3-1.4C188.6,118,187.4,118.4,186.3,119.1z"/>
		<path class="st2" d="M197.2,117.9c1.4,0.6,2.6,1.5,3.7,2.8C199.8,119.4,198.5,118.5,197.2,117.9z"/>
		<path class="st2" d="M192.8,117.1c1,0,2,0.1,3,0.3C194.8,117.2,193.8,117.1,192.8,117.1z"/>
	</g>
	<path class="st3" d="M99.9,95.7c0.2,8.2-6.9,18-13.3,18.2c-3,0.1-4.8-0.6-4.9-4.3C81.5,100,88.1,88.2,94,88.4
		C98.7,88.5,100,91.6,99.9,95.7z"/>
	<path class="st4" d="M54.7,169.2c-1.6,4.1-3.5,8.2-9,8.5c-3.2,0.1-6.7-1.4-6.5-4.4c0.5-5.9,5.9-6.8,10.7-7.5
		C52.2,165.4,54.7,165.7,54.7,169.2z"/>
	<path class="st1" d="M232.9,136.2c0.2,1.1,0.1,2.2-0.3,3.2c-2,4.8-3.7,10.3-9.7,11.4c-4.5,0.8-5.7-3.8-5.3-7.5
		c0.7-5.6,2.7-11.3,8.9-12.4C229.9,130.2,232.1,132.6,232.9,136.2z"/>
	<path class="st1" d="M196.3,128.2c-0.4,3.1-2.6,4.9-5.5,5.8c-1.6,0.5-3.7-0.1-3.4-2.1c0.4-3,2.7-5.2,5.4-6.2
		C194.4,125,195.8,126.1,196.3,128.2z"/>
</g>
</svg>
